<?xml version="1.0" standalone="no"?>
<!DOCTYPE svg PUBLIC "-//W3C//DTD SVG 20010904//EN"
 "http://www.w3.org/TR/2001/REC-SVG-20010904/DTD/svg10.dtd">
<svg version="1.0" xmlns="http://www.w3.org/2000/svg"
 width="181.000000pt" height="300.000000pt" viewBox="0 0 181.000000 300.000000"
 preserveAspectRatio="xMidYMid meet">

<g transform="translate(0.000000,300.000000) scale(0.100000,-0.100000)"
fill="#000000" stroke="none">
<path d="M773 2906 l-122 -81 -1 -177 0 -176 88 -44 87 -43 2 -515 2 -515 32
-13 c17 -7 33 -11 35 -9 2 2 3 375 2 829 l-3 825 -122 -81z"/>
<path d="M1028 1147 c-43 -18 -78 -34 -78 -37 0 -3 78 -38 173 -78 l172 -73
240 3 c132 2 233 6 225 10 -18 8 -645 208 -651 208 -2 -1 -39 -15 -81 -33z"/>
<path d="M360 774 c0 -34 1 -35 33 -32 28 3 32 7 35 36 3 31 2 32 -32 32 -35
0 -36 -1 -36 -36z"/>
<path d="M230 635 c0 -69 5 -118 14 -140 36 -85 216 -101 280 -24 25 29 26 36
26 150 l0 120 -32 -3 -33 -3 -3 -102 c-3 -98 -4 -103 -30 -124 -21 -17 -36
-20 -72 -16 -69 8 -80 29 -80 148 l0 99 -35 0 -35 0 0 -105z"/>
<path d="M690 705 l0 -35 58 0 c82 0 102 -16 102 -86 l0 -54 -115 0 -115 0 0
-30 0 -30 310 0 c224 0 316 3 329 12 17 10 24 8 46 -15 73 -72 205 -55 250 33
20 38 19 123 0 161 -23 44 -71 69 -133 69 -89 0 -135 -35 -153 -117 -18 -80
-28 -84 -200 -81 l-144 3 -6 72 c-8 106 -42 133 -171 133 l-58 0 0 -35z m781
-54 c72 -72 6 -200 -86 -165 -23 9 -45 57 -45 99 0 42 44 95 80 95 12 0 35
-13 51 -29z"/>
<path d="M230 135 l0 -125 25 0 c24 0 25 2 25 70 0 39 3 70 6 70 4 0 21 -16
38 -36 l32 -37 32 37 c17 20 34 36 37 36 3 0 5 -31 5 -70 0 -68 1 -70 25 -70
l25 0 0 125 c0 117 -1 125 -20 125 -10 0 -36 -20 -57 -45 -20 -25 -41 -45 -46
-45 -5 0 -27 20 -49 45 -22 25 -48 45 -59 45 -18 0 -19 -9 -19 -125z"/>
<path d="M564 227 c-35 -32 -38 -39 -38 -88 0 -93 49 -137 141 -126 69 7 103
48 103 122 0 46 -5 60 -28 86 -24 27 -37 33 -84 37 -53 4 -58 2 -94 -31z m121
-30 c62 -53 12 -168 -59 -136 -67 31 -47 152 26 158 4 1 19 -9 33 -22z"/>
<path d="M824 247 c-2 -7 -3 -62 -2 -123 l3 -109 60 -3 c97 -4 149 39 148 121
-1 56 -15 83 -56 107 -38 24 -144 28 -153 7z m129 -59 c27 -32 23 -92 -10
-118 -15 -11 -36 -20 -47 -18 -19 3 -21 11 -24 72 -2 38 0 76 3 84 7 19 54 8
78 -20z"/>
<path d="M1145 251 c-77 -32 -91 -154 -25 -213 42 -39 115 -39 159 -2 92 77
42 225 -76 223 -21 0 -47 -4 -58 -8z m103 -60 c21 -26 25 -59 12 -92 -31 -74
-112 -51 -118 33 -3 40 1 49 24 67 30 23 60 20 82 -8z"/>
<path d="M1360 135 l0 -125 30 0 29 0 3 70 3 70 53 -70 c37 -48 61 -70 75 -70
22 0 22 3 19 125 -3 124 -3 125 -27 125 -23 0 -24 -3 -27 -72 l-3 -73 -55 72
c-39 51 -62 72 -77 72 -23 1 -23 -1 -23 -124z"/>
</g>
</svg>
